<svg aria-hidden="true" version="1.1" xmlns="http://www.w3.org/2000/svg" xmlns:xlink="http://www.w3.org/1999/xlink" style="display: none;"><defs><symbol id="renren" viewBox="0 0 438.54 438.539"><title>renren-social-network-of-china-logotype</title><path d="M182.156,140.477V2.004c-34.073,5.708-65.002,18.748-92.793,39.115c-27.79,20.367-49.632,46.015-65.524,76.944 C7.946,148.998,0,182.258,0,217.85c0,53.293,17.227,100.403,51.676,141.325c38.831-18.843,70.283-48.01,94.361-87.508 C170.116,232.168,182.156,188.443,182.156,140.477z"/><path d="M414.697,118.056c-15.892-30.929-37.732-56.582-65.521-76.944C321.388,20.745,290.453,7.708,256.388,2v138.473 c0,47.967,12.043,91.695,36.114,131.194c24.078,39.498,55.538,68.665,94.366,87.508c34.454-40.922,51.671-88.032,51.671-141.325 C438.533,182.254,430.597,148.991,414.697,118.056z"/><path d="M256.245,349.466c-18.556-23.599-31.173-49.107-37.831-76.52c-6.471,27.412-18.986,52.921-37.544,76.52 c-18.559,23.596-40.968,43.681-67.237,60.237c32.548,17.891,67.475,26.836,104.781,26.836c37.495,0,72.517-8.945,105.059-26.836 C297.214,393.146,274.806,373.065,256.245,349.466z"/></symbol><symbol id="google-plus" viewBox="0 0 96.828 96.827"><title>google-plus-logo</title><path d="M62.617,0H39.525c-10.29,0-17.413,2.256-23.824,7.552c-5.042,4.35-8.051,10.672-8.051,16.912 c0,9.614,7.33,19.831,20.913,19.831c1.306,0,2.752-0.134,4.028-0.253l-0.188,0.457c-0.546,1.308-1.063,2.542-1.063,4.468 c0,3.75,1.809,6.063,3.558,8.298l0.22,0.283l-0.391,0.027c-5.609,0.384-16.049,1.1-23.675,5.787 c-9.007,5.355-9.707,13.145-9.707,15.404c0,8.988,8.376,18.06,27.09,18.06c21.76,0,33.146-12.005,33.146-23.863 c0.002-8.771-5.141-13.101-10.6-17.698l-4.605-3.582c-1.423-1.179-3.195-2.646-3.195-5.364c0-2.672,1.772-4.436,3.336-5.992 l0.163-0.165c4.973-3.917,10.609-8.358,10.609-17.964c0-9.658-6.035-14.649-8.937-17.048h7.663c0.094,0,0.188-0.026,0.266-0.077 l6.601-4.15c0.188-0.119,0.276-0.348,0.214-0.562C63.037,0.147,62.839,0,62.617,0z M34.614,91.535 c-13.264,0-22.176-6.195-22.176-15.416c0-6.021,3.645-10.396,10.824-12.997c5.749-1.935,13.17-2.031,13.244-2.031 c1.257,0,1.889,0,2.893,0.126c9.281,6.605,13.743,10.073,13.743,16.678C53.141,86.309,46.041,91.535,34.614,91.535z M34.489,40.756c-11.132,0-15.752-14.633-15.752-22.468c0-3.984,0.906-7.042,2.77-9.351c2.023-2.531,5.487-4.166,8.825-4.166 c10.221,0,15.873,13.738,15.873,23.233c0,1.498,0,6.055-3.148,9.22C40.94,39.337,37.497,40.756,34.489,40.756z"/><path d="M94.982,45.223H82.814V33.098c0-0.276-0.225-0.5-0.5-0.5H77.08c-0.276,0-0.5,0.224-0.5,0.5v12.125H64.473 c-0.276,0-0.5,0.224-0.5,0.5v5.304c0,0.275,0.224,0.5,0.5,0.5H76.58V63.73c0,0.275,0.224,0.5,0.5,0.5h5.234 c0.275,0,0.5-0.225,0.5-0.5V51.525h12.168c0.276,0,0.5-0.223,0.5-0.5v-5.302C95.482,45.446,95.259,45.223,94.982,45.223z"/></symbol><symbol id="twitter" viewBox="0 0 512 512"><title>twitter</title><path d="M512,97.248c-19.04,8.352-39.328,13.888-60.48,16.576c21.76-12.992,38.368-33.408,46.176-58.016 c-20.288,12.096-42.688,20.64-66.56,25.408C411.872,60.704,384.416,48,354.464,48c-58.112,0-104.896,47.168-104.896,104.992 c0,8.32,0.704,16.32,2.432,23.936c-87.264-4.256-164.48-46.08-216.352-109.792c-9.056,15.712-14.368,33.696-14.368,53.056 c0,36.352,18.72,68.576,46.624,87.232c-16.864-0.32-33.408-5.216-47.424-12.928c0,0.32,0,0.736,0,1.152 c0,51.008,36.384,93.376,84.096,103.136c-8.544,2.336-17.856,3.456-27.52,3.456c-6.72,0-13.504-0.384-19.872-1.792 c13.6,41.568,52.192,72.128,98.08,73.12c-35.712,27.936-81.056,44.768-130.144,44.768c-8.608,0-16.864-0.384-25.12-1.44 C46.496,446.88,101.6,464,161.024,464c193.152,0,298.752-160,298.752-298.688c0-4.64-0.16-9.12-0.384-13.568 C480.224,136.96,497.728,118.496,512,97.248z"/></symbol><symbol id="facebook" viewBox="0 0 96.124 96.123"><title>facebook-logo</title><path d="M72.089,0.02L59.624,0C45.62,0,36.57,9.285,36.57,23.656v10.907H24.037c-1.083,0-1.96,0.878-1.96,1.961v15.803 c0,1.083,0.878,1.96,1.96,1.96h12.533v39.876c0,1.083,0.877,1.96,1.96,1.96h16.352c1.083,0,1.96-0.878,1.96-1.96V54.287h14.654 c1.083,0,1.96-0.877,1.96-1.96l0.006-15.803c0-0.52-0.207-1.018-0.574-1.386c-0.367-0.368-0.867-0.575-1.387-0.575H56.842v-9.246 c0-4.444,1.059-6.7,6.848-6.7l8.397-0.003c1.082,0,1.959-0.878,1.959-1.96V1.98C74.046,0.899,73.17,0.022,72.089,0.02z"/></symbol><symbol id="linkedin" viewBox="0 0 430.117 430.117"><title>linkedin-logo</title><path id="LinkedIn" d="M430.117,261.543V420.56h-92.188V272.193c0-37.271-13.334-62.707-46.703-62.707 c-25.473,0-40.632,17.142-47.301,33.724c-2.432,5.928-3.058,14.179-3.058,22.477V420.56h-92.219c0,0,1.242-251.285,0-277.32h92.21 v39.309c-0.187,0.294-0.43,0.611-0.606,0.896h0.606v-0.896c12.251-18.869,34.13-45.824,83.102-45.824 C384.633,136.724,430.117,176.361,430.117,261.543z M52.183,9.558C20.635,9.558,0,30.251,0,57.463 c0,26.619,20.038,47.94,50.959,47.94h0.616c32.159,0,52.159-21.317,52.159-47.94C103.128,30.251,83.734,9.558,52.183,9.558z M5.477,420.56h92.184v-277.32H5.477V420.56z"/></symbol><symbol id="thumbs-up" viewBox="0 0 456.814 456.814"><title>thumbs-up-hand-symbol</title><path d="M441.11,252.677c10.468-11.99,15.704-26.169,15.704-42.54c0-14.846-5.432-27.692-16.259-38.547 c-10.849-10.854-23.695-16.278-38.541-16.278h-79.082c0.76-2.664,1.522-4.948,2.282-6.851c0.753-1.903,1.811-3.999,3.138-6.283 c1.328-2.285,2.283-3.999,2.852-5.139c3.425-6.468,6.047-11.801,7.857-15.985c1.807-4.192,3.606-9.9,5.42-17.133 c1.811-7.229,2.711-14.465,2.711-21.698c0-4.566-0.055-8.281-0.145-11.134c-0.089-2.855-0.574-7.139-1.423-12.85 c-0.862-5.708-2.006-10.467-3.43-14.272c-1.43-3.806-3.716-8.092-6.851-12.847c-3.142-4.764-6.947-8.613-11.424-11.565 c-4.476-2.95-10.184-5.424-17.131-7.421c-6.954-1.999-14.801-2.998-23.562-2.998c-4.948,0-9.227,1.809-12.847,5.426 c-3.806,3.806-7.047,8.564-9.709,14.272c-2.666,5.711-4.523,10.66-5.571,14.849c-1.047,4.187-2.238,9.994-3.565,17.415 c-1.719,7.998-2.998,13.752-3.86,17.273c-0.855,3.521-2.525,8.136-4.997,13.845c-2.477,5.713-5.424,10.278-8.851,13.706 c-6.28,6.28-15.891,17.701-28.837,34.259c-9.329,12.18-18.94,23.695-28.837,34.545c-9.899,10.852-17.131,16.466-21.698,16.847 c-4.755,0.38-8.848,2.331-12.275,5.854c-3.427,3.521-5.14,7.662-5.14,12.419v183.01c0,4.949,1.807,9.182,5.424,12.703 c3.615,3.525,7.898,5.38,12.847,5.571c6.661,0.191,21.698,4.374,45.111,12.566c14.654,4.941,26.12,8.706,34.4,11.272 c8.278,2.566,19.849,5.328,34.684,8.282c14.849,2.949,28.551,4.428,41.11,4.428h4.855h21.7h10.276 c25.321-0.38,44.061-7.806,56.247-22.268c11.036-13.135,15.697-30.361,13.99-51.679c7.422-7.042,12.565-15.984,15.416-26.836 c3.231-11.604,3.231-22.74,0-33.397c8.754-11.611,12.847-24.649,12.272-39.115C445.395,268.286,443.971,261.055,441.11,252.677z"/><path d="M100.5,191.864H18.276c-4.952,0-9.235,1.809-12.851,5.426C1.809,200.905,0,205.188,0,210.137v182.732 c0,4.942,1.809,9.227,5.426,12.847c3.619,3.611,7.902,5.421,12.851,5.421H100.5c4.948,0,9.229-1.81,12.847-5.421 c3.616-3.62,5.424-7.904,5.424-12.847V210.137c0-4.949-1.809-9.231-5.424-12.847C109.73,193.672,105.449,191.864,100.5,191.864z M67.665,369.308c-3.616,3.521-7.898,5.281-12.847,5.281c-5.14,0-9.471-1.76-12.99-5.281c-3.521-3.521-5.281-7.85-5.281-12.99 c0-4.948,1.759-9.232,5.281-12.847c3.52-3.617,7.85-5.428,12.99-5.428c4.949,0,9.231,1.811,12.847,5.428 c3.617,3.614,5.426,7.898,5.426,12.847C73.091,361.458,71.286,365.786,67.665,369.308z"/></symbol><symbol id="unlock" viewBox="0 0 438.533 438.533"><title>padlock-unlock</title><path d="M375.721,227.259c-5.331-5.331-11.8-7.992-19.417-7.992H146.176v-91.36c0-20.179,7.139-37.402,21.415-51.678 c14.277-14.273,31.501-21.411,51.678-21.411c20.175,0,37.402,7.137,51.673,21.411c14.277,14.276,21.416,31.5,21.416,51.678 c0,4.947,1.807,9.229,5.42,12.845c3.621,3.617,7.905,5.426,12.847,5.426h18.281c4.945,0,9.227-1.809,12.848-5.426 c3.606-3.616,5.42-7.898,5.42-12.845c0-35.216-12.515-65.331-37.541-90.362C284.603,12.513,254.48,0,219.269,0 c-35.214,0-65.334,12.513-90.366,37.544c-25.028,25.028-37.542,55.146-37.542,90.362v91.36h-9.135 c-7.611,0-14.084,2.667-19.414,7.992c-5.33,5.325-7.994,11.8-7.994,19.414v164.452c0,7.617,2.665,14.089,7.994,19.417 c5.33,5.325,11.803,7.991,19.414,7.991h274.078c7.617,0,14.092-2.666,19.417-7.991c5.325-5.328,7.994-11.8,7.994-19.417V246.673 C383.719,239.059,381.053,232.591,375.721,227.259z"/></symbol><symbol id="headphones" viewBox="0 0 475.082 475.081"><title>music-headphones</title><path d="M455.955,169.876c-12.765-26.647-29.793-49.726-51.106-69.234c-21.32-19.508-46.644-35.072-75.951-46.682 s-59.758-17.416-91.358-17.416c-31.595,0-62.047,5.809-91.359,17.416c-29.314,11.606-54.626,27.17-75.946,46.682 s-38.354,42.587-51.106,69.234C6.375,196.526,0,224.222,0,252.955c0,31.601,5.708,61.483,17.129,89.654l5.712,13.99l52.817,9.417 c4.187,15.797,12.801,28.787,25.841,38.972c13.035,10.178,27.928,15.27,44.68,15.27v9.138c0,2.662,0.854,4.853,2.568,6.563 c1.713,1.711,3.903,2.57,6.567,2.57h18.271c2.663,0,4.853-0.859,6.567-2.57c1.709-1.711,2.568-3.901,2.568-6.563V264.943 c0-2.666-0.855-4.855-2.568-6.567c-1.715-1.711-3.905-2.566-6.567-2.566h-18.271c-2.667,0-4.854,0.855-6.567,2.566 c-1.714,1.712-2.568,3.901-2.568,6.567v9.134c-13.518,0-25.887,3.381-37.119,10.14c-11.231,6.752-20.08,15.842-26.552,27.265 l-19.417-3.429c-5.515-18.09-8.276-36.453-8.276-55.107c0-28.168,8.372-54.719,25.122-79.652 c16.751-24.934,39.259-44.827,67.524-59.671c28.265-14.845,58.291-22.266,90.078-22.266c31.778,0,61.812,7.421,90.078,22.266 c28.268,14.844,50.771,34.737,67.526,59.671c16.748,24.934,25.126,51.484,25.126,79.652c0,18.654-2.759,37.018-8.275,55.107 l-19.421,3.432c-6.478-11.426-15.324-20.509-26.549-27.264c-11.231-6.759-23.609-10.144-37.12-10.144v-9.13 c0-2.666-0.853-4.856-2.57-6.567c-1.707-1.708-3.897-2.57-6.563-2.57h-18.274c-2.662,0-4.853,0.862-6.563,2.57 c-1.715,1.711-2.57,3.901-2.57,6.567v164.455c0,2.662,0.855,4.853,2.57,6.563c1.711,1.711,3.901,2.57,6.563,2.57h18.274 c2.666,0,4.856-0.859,6.563-2.57c1.718-1.711,2.57-3.901,2.57-6.563v-9.138c16.748,0,31.642-5.092,44.68-15.27 c13.042-10.185,21.652-23.175,25.837-38.972l52.818-9.418l5.715-13.989c11.416-28.171,17.128-58.054,17.128-89.653 C475.082,224.222,468.709,196.526,455.955,169.876z"/></symbol><symbol id="cloud-up" viewBox="0 0 548.176 548.176"><title>cloud-storage-uploading-option</title><path d="M524.326,297.352c-15.896-19.89-36.21-32.782-60.959-38.684c7.81-11.8,11.704-24.934,11.704-39.399 c0-20.177-7.139-37.401-21.409-51.678c-14.273-14.272-31.498-21.411-51.675-21.411c-18.083,0-33.879,5.901-47.39,17.703 c-11.225-27.41-29.171-49.393-53.817-65.95c-24.646-16.562-51.818-24.842-81.514-24.842c-40.349,0-74.802,14.279-103.353,42.83 c-28.553,28.544-42.825,62.999-42.825,103.351c0,2.474,0.191,6.567,0.571,12.275c-22.459,10.469-40.349,26.171-53.676,47.106 C6.661,299.594,0,322.43,0,347.179c0,35.214,12.517,65.329,37.544,90.358c25.028,25.037,55.15,37.548,90.362,37.548h310.636 c30.259,0,56.096-10.711,77.512-32.12c21.413-21.409,32.121-47.246,32.121-77.516C548.172,339.944,540.223,317.248,524.326,297.352 z M362.729,289.648c-1.813,1.804-3.949,2.707-6.42,2.707h-63.953v100.502c0,2.471-0.903,4.613-2.711,6.42 c-1.813,1.813-3.949,2.711-6.42,2.711h-54.826c-2.474,0-4.615-0.897-6.423-2.711c-1.804-1.807-2.712-3.949-2.712-6.42V292.355 H155.31c-2.662,0-4.853-0.855-6.563-2.563c-1.713-1.714-2.568-3.904-2.568-6.566c0-2.286,0.95-4.572,2.852-6.855l100.213-100.21 c1.713-1.714,3.903-2.57,6.567-2.57c2.666,0,4.856,0.856,6.567,2.57l100.499,100.495c1.714,1.712,2.562,3.901,2.562,6.571 C365.438,285.696,364.535,287.845,362.729,289.648z"/></symbol><symbol id="dollar" viewBox="0 0 484.184 484.184"><title>dollar-symbol</title><path d="M309.43,219.944c-19-10.5-39.2-18.5-59.2-26.8c-11.6-4.8-22.7-10.4-32.5-18.2c-19.3-15.4-15.6-40.4,7-50.3 c6.4-2.8,13.1-3.7,19.9-4.1c26.2-1.4,51.1,3.4,74.8,14.8c11.8,5.7,15.7,3.9,19.7-8.4c4.2-13,7.7-26.2,11.6-39.3 c2.6-8.8-0.6-14.6-8.9-18.3c-15.2-6.7-30.8-11.5-47.2-14.1c-21.4-3.3-21.4-3.4-21.5-24.9c-0.1-30.3-0.1-30.3-30.5-30.3 c-4.4,0-8.8-0.1-13.2,0c-14.2,0.4-16.6,2.9-17,17.2c-0.2,6.4,0,12.8-0.1,19.3c-0.1,19-0.2,18.7-18.4,25.3c-44,16-71.2,46-74.1,94 c-2.6,42.5,19.6,71.2,54.5,92.1c21.5,12.9,45.3,20.5,68.1,30.6c8.9,3.9,17.4,8.4,24.8,14.6c21.9,18.1,17.9,48.2-8.1,59.6 c-13.9,6.1-28.6,7.6-43.7,5.7c-23.3-2.9-45.6-9-66.6-19.9c-12.3-6.4-15.9-4.7-20.1,8.6c-3.6,11.5-6.8,23.1-10,34.7 c-4.3,15.6-2.7,19.3,12.2,26.6c19,9.2,39.3,13.9,60,17.2c16.2,2.6,16.7,3.3,16.9,20.1c0.1,7.6,0.1,15.3,0.2,22.9 c0.1,9.6,4.7,15.2,14.6,15.4c11.2,0.2,22.5,0.2,33.7-0.1c9.2-0.2,13.9-5.2,13.9-14.5c0-10.4,0.5-20.9,0.1-31.3 c-0.5-10.6,4.1-16,14.3-18.8c23.5-6.4,43.5-19,58.9-37.8C386.33,329.544,370.03,253.444,309.43,219.944z"/></symbol><symbol id="rocket" viewBox="0 0 466.227 466.227"><title>small-rocket-ship-silhouette</title><path d="M463.36,2.852c-1.906-1.805-4.188-2.712-6.854-2.712c-49.677,0-90.694,6.755-123.051,20.271 c-32.353,13.518-66.424,38.072-102.208,73.662c-15.225,15.418-31.977,33.977-50.248,55.675l-108.205,5.708 c-3.046,0.387-5.52,1.906-7.423,4.57L1.418,269.666c-2.285,3.806-1.807,7.519,1.427,11.136l18.271,18.271 c1.714,1.714,3.901,2.569,6.567,2.569c1.143,0,1.997-0.096,2.568-0.287l78.802-24.273l80.228,80.232l-24.269,78.795 c-0.949,3.43-0.188,6.472,2.285,9.138l18.272,18.274c2.094,1.707,4.285,2.566,6.567,2.566c1.716,0,3.238-0.384,4.569-1.144 l109.639-63.953c2.666-1.902,4.186-4.373,4.568-7.419l5.708-108.209c21.7-18.274,40.262-35.022,55.676-50.251 c33.89-34.074,58.009-68.378,72.375-102.923c14.373-34.547,21.556-75.519,21.556-122.91C466.224,6.804,465.273,4.664,463.36,2.852z M394.277,110.92c-5.325,5.326-11.8,7.994-19.414,7.994s-14.082-2.665-19.414-7.994c-5.325-5.33-7.994-11.802-7.994-19.417 c0-7.611,2.666-14.084,7.994-19.414c5.328-5.327,11.8-7.993,19.414-7.993s14.086,2.663,19.414,7.993s7.994,11.803,7.994,19.414 C402.271,99.119,399.612,105.586,394.277,110.92z"/></symbol><symbol id="cog" viewBox="0 0 438.529 438.529"><title>cog-wheel-silhouette</title><path d="M436.25,181.438c-1.529-2.002-3.524-3.193-5.995-3.571l-52.249-7.992c-2.854-9.137-6.756-18.461-11.704-27.98 c3.422-4.758,8.559-11.466,15.41-20.129c6.851-8.661,11.703-14.987,14.561-18.986c1.523-2.094,2.279-4.281,2.279-6.567 c0-2.663-0.66-4.755-1.998-6.28c-6.848-9.708-22.552-25.885-47.106-48.536c-2.275-1.903-4.661-2.854-7.132-2.854 c-2.857,0-5.14,0.855-6.854,2.567l-40.539,30.549c-7.806-3.999-16.371-7.52-25.693-10.565l-7.994-52.529 c-0.191-2.474-1.287-4.521-3.285-6.139C255.95,0.806,253.623,0,250.954,0h-63.38c-5.52,0-8.947,2.663-10.278,7.993 c-2.475,9.513-5.236,27.214-8.28,53.1c-8.947,2.86-17.607,6.476-25.981,10.853l-39.399-30.549 c-2.474-1.903-4.948-2.854-7.422-2.854c-4.187,0-13.179,6.804-26.979,20.413c-13.8,13.612-23.169,23.841-28.122,30.69 c-1.714,2.474-2.568,4.664-2.568,6.567c0,2.286,0.95,4.57,2.853,6.851c12.751,15.42,22.936,28.549,30.55,39.403 c-4.759,8.754-8.47,17.511-11.132,26.265l-53.105,7.992c-2.093,0.382-3.9,1.621-5.424,3.715C0.76,182.531,0,184.722,0,187.002 v63.383c0,2.478,0.76,4.709,2.284,6.708c1.524,1.998,3.521,3.195,5.996,3.572l52.25,7.71c2.663,9.325,6.564,18.743,11.704,28.257 c-3.424,4.761-8.563,11.468-15.415,20.129c-6.851,8.665-11.709,14.989-14.561,18.986c-1.525,2.102-2.285,4.285-2.285,6.57 c0,2.471,0.666,4.658,1.997,6.561c7.423,10.284,23.125,26.272,47.109,47.969c2.095,2.094,4.475,3.138,7.137,3.138 c2.857,0,5.236-0.852,7.138-2.563l40.259-30.553c7.808,3.997,16.371,7.519,25.697,10.568l7.993,52.529 c0.193,2.471,1.287,4.518,3.283,6.14c1.997,1.622,4.331,2.423,6.995,2.423h63.38c5.53,0,8.952-2.662,10.287-7.994 c2.471-9.514,5.229-27.213,8.274-53.098c8.946-2.858,17.607-6.476,25.981-10.855l39.402,30.84c2.663,1.712,5.141,2.563,7.42,2.563 c4.186,0,13.131-6.752,26.833-20.27c13.709-13.511,23.13-23.79,28.264-30.837c1.711-1.902,2.569-4.09,2.569-6.561 c0-2.478-0.947-4.862-2.857-7.139c-13.698-16.754-23.883-29.882-30.546-39.402c3.806-7.043,7.519-15.701,11.136-25.98l52.817-7.988 c2.279-0.383,4.189-1.622,5.708-3.716c1.523-2.098,2.279-4.288,2.279-6.571v-63.376 C438.533,185.671,437.777,183.438,436.25,181.438z M270.946,270.939c-14.271,14.277-31.497,21.416-51.676,21.416 c-20.177,0-37.401-7.139-51.678-21.416c-14.272-14.271-21.411-31.498-21.411-51.673c0-20.177,7.135-37.401,21.411-51.678 c14.277-14.272,31.504-21.411,51.678-21.411c20.179,0,37.406,7.139,51.676,21.411c14.274,14.277,21.413,31.501,21.413,51.678 C292.359,239.441,285.221,256.669,270.946,270.939z"/></symbol><symbol id="clock" viewBox="0 0 438.533 438.533"><title>time</title><path d="M409.133,109.203c-19.608-33.592-46.205-60.189-79.798-79.796C295.736,9.801,259.058,0,219.273,0 c-39.781,0-76.47,9.801-110.063,29.407c-33.595,19.604-60.192,46.201-79.8,79.796C9.801,142.8,0,179.489,0,219.267 c0,39.78,9.804,76.463,29.407,110.062c19.607,33.592,46.204,60.189,79.799,79.798c33.597,19.605,70.283,29.407,110.063,29.407 s76.47-9.802,110.065-29.407c33.593-19.602,60.189-46.206,79.795-79.798c19.603-33.596,29.403-70.284,29.403-110.062 C438.533,179.485,428.732,142.795,409.133,109.203z M353.742,297.208c-13.894,23.791-32.736,42.64-56.527,56.534 c-23.791,13.894-49.771,20.834-77.945,20.834c-28.167,0-54.149-6.94-77.943-20.834c-23.791-13.895-42.633-32.743-56.527-56.534 c-13.897-23.791-20.843-49.772-20.843-77.941c0-28.171,6.949-54.152,20.843-77.943c13.891-23.791,32.738-42.637,56.527-56.53 c23.791-13.895,49.772-20.84,77.943-20.84c28.173,0,54.154,6.945,77.945,20.84c23.791,13.894,42.634,32.739,56.527,56.53 c13.895,23.791,20.838,49.772,20.838,77.943C374.58,247.436,367.637,273.417,353.742,297.208z"/><path d="M246.68,109.631h-18.274c-2.669,0-4.853,0.859-6.57,2.57c-1.706,1.713-2.565,3.9-2.565,6.565v100.5h-63.953 c-2.667,0-4.853,0.855-6.567,2.564c-1.712,1.712-2.568,3.901-2.568,6.571v18.271c0,2.666,0.856,4.856,2.568,6.567 c1.715,1.711,3.905,2.566,6.567,2.566h91.367c2.662,0,4.853-0.855,6.561-2.566c1.711-1.711,2.573-3.901,2.573-6.567V118.766 c0-2.663-0.862-4.849-2.573-6.565C251.536,110.49,249.346,109.631,246.68,109.631z"/></symbol><symbol id="email" viewBox="0 0 511.626 511.626"><title>envelope</title><path d="M49.106,178.729c6.472,4.567,25.981,18.131,58.528,40.685c32.548,22.554,57.482,39.92,74.803,52.099 c1.903,1.335,5.946,4.237,12.131,8.71c6.186,4.476,11.326,8.093,15.416,10.852c4.093,2.758,9.041,5.852,14.849,9.277 c5.806,3.422,11.279,5.996,16.418,7.7c5.14,1.718,9.898,2.569,14.275,2.569h0.287h0.288c4.377,0,9.137-0.852,14.277-2.569 c5.137-1.704,10.615-4.281,16.416-7.7c5.804-3.429,10.752-6.52,14.845-9.277c4.093-2.759,9.229-6.376,15.417-10.852 c6.184-4.477,10.232-7.375,12.135-8.71c17.508-12.179,62.051-43.11,133.615-92.79c13.894-9.703,25.502-21.411,34.827-35.116 c9.332-13.699,13.993-28.07,13.993-43.105c0-12.564-4.523-23.319-13.565-32.264c-9.041-8.947-19.749-13.418-32.117-13.418H45.679 c-14.655,0-25.933,4.948-33.832,14.844C3.949,79.562,0,91.934,0,106.779c0,11.991,5.236,24.985,15.703,38.974 C26.169,159.743,37.307,170.736,49.106,178.729z"/><path d="M483.072,209.275c-62.424,42.251-109.824,75.087-142.177,98.501c-10.849,7.991-19.65,14.229-26.409,18.699 c-6.759,4.473-15.748,9.041-26.98,13.702c-11.228,4.668-21.692,6.995-31.401,6.995h-0.291h-0.287 c-9.707,0-20.177-2.327-31.405-6.995c-11.228-4.661-20.223-9.229-26.98-13.702c-6.755-4.47-15.559-10.708-26.407-18.699 c-25.697-18.842-72.995-51.68-141.896-98.501C17.987,202.047,8.375,193.762,0,184.437v226.685c0,12.57,4.471,23.319,13.418,32.265 c8.945,8.949,19.701,13.422,32.264,13.422h420.266c12.56,0,23.315-4.473,32.261-13.422c8.949-8.949,13.418-19.694,13.418-32.265 V184.437C503.441,193.569,493.927,201.854,483.072,209.275z"/></symbol><symbol id="phone" viewBox="0 0 401.998 401.998"><title>telephone-handle-silhouette</title><path d="M401.129,311.475c-1.137-3.426-8.371-8.473-21.697-15.129c-3.61-2.098-8.754-4.949-15.41-8.566 c-6.662-3.617-12.709-6.95-18.13-9.996c-5.432-3.045-10.521-5.995-15.276-8.846c-0.76-0.571-3.139-2.234-7.136-5 c-4.001-2.758-7.375-4.805-10.14-6.14c-2.759-1.327-5.473-1.995-8.138-1.995c-3.806,0-8.56,2.714-14.268,8.135 c-5.708,5.428-10.944,11.324-15.7,17.706c-4.757,6.379-9.802,12.275-15.126,17.7c-5.332,5.427-9.713,8.138-13.135,8.138 c-1.718,0-3.86-0.479-6.427-1.424c-2.566-0.951-4.518-1.766-5.858-2.423c-1.328-0.671-3.607-1.999-6.845-4.004 c-3.244-1.999-5.048-3.094-5.428-3.285c-26.075-14.469-48.438-31.029-67.093-49.676c-18.649-18.658-35.211-41.019-49.676-67.097 c-0.19-0.381-1.287-2.19-3.284-5.424c-2-3.237-3.333-5.518-3.999-6.854c-0.666-1.331-1.475-3.283-2.425-5.852 s-1.427-4.709-1.427-6.424c0-3.424,2.713-7.804,8.138-13.134c5.424-5.327,11.326-10.373,17.7-15.128 c6.379-4.755,12.275-9.991,17.701-15.699c5.424-5.711,8.136-10.467,8.136-14.273c0-2.663-0.666-5.378-1.997-8.137 c-1.332-2.765-3.378-6.139-6.139-10.138c-2.762-3.997-4.427-6.374-4.999-7.139c-2.852-4.755-5.799-9.846-8.848-15.271 c-3.049-5.424-6.377-11.47-9.995-18.131c-3.615-6.658-6.468-11.799-8.564-15.415C98.986,9.233,93.943,1.997,90.516,0.859 C89.183,0.288,87.183,0,84.521,0c-5.142,0-11.85,0.95-20.129,2.856c-8.282,1.903-14.799,3.899-19.558,5.996 c-9.517,3.995-19.604,15.605-30.264,34.826C4.863,61.566,0.01,79.271,0.01,96.78c0,5.135,0.333,10.131,0.999,14.989 c0.666,4.853,1.856,10.326,3.571,16.418c1.712,6.09,3.093,10.614,4.137,13.56c1.045,2.948,2.996,8.229,5.852,15.845 c2.852,7.614,4.567,12.275,5.138,13.988c6.661,18.654,14.56,35.307,23.695,49.964c15.03,24.362,35.541,49.539,61.521,75.521 c25.981,25.98,51.153,46.49,75.517,61.526c14.655,9.134,31.314,17.032,49.965,23.698c1.714,0.568,6.375,2.279,13.986,5.141 c7.614,2.854,12.897,4.805,15.845,5.852c2.949,1.048,7.474,2.43,13.559,4.145c6.098,1.715,11.566,2.905,16.419,3.576 c4.856,0.657,9.853,0.996,14.989,0.996c17.508,0,35.214-4.856,53.105-14.562c19.219-10.656,30.826-20.745,34.823-30.269 c2.102-4.754,4.093-11.273,5.996-19.555c1.909-8.278,2.857-14.985,2.857-20.126C401.99,314.814,401.703,312.819,401.129,311.475z"/></symbol><symbol id="user" viewBox="0 0 438.529 438.529"><title>user-shape</title><path d="M219.265,219.267c30.271,0,56.108-10.71,77.518-32.121c21.412-21.411,32.12-47.248,32.12-77.515 c0-30.262-10.708-56.1-32.12-77.516C275.366,10.705,249.528,0,219.265,0S163.16,10.705,141.75,32.115 c-21.414,21.416-32.121,47.253-32.121,77.516c0,30.267,10.707,56.104,32.121,77.515 C163.166,208.557,189.001,219.267,219.265,219.267z"/><path d="M419.258,335.036c-0.668-9.609-2.002-19.985-3.997-31.121c-1.999-11.136-4.524-21.457-7.57-30.978 c-3.046-9.514-7.139-18.794-12.278-27.836c-5.137-9.041-11.037-16.748-17.703-23.127c-6.666-6.377-14.801-11.465-24.406-15.271 c-9.617-3.805-20.229-5.711-31.84-5.711c-1.711,0-5.709,2.046-11.991,6.139c-6.276,4.093-13.367,8.662-21.266,13.708 c-7.898,5.037-18.182,9.609-30.834,13.695c-12.658,4.093-25.361,6.14-38.118,6.14c-12.752,0-25.456-2.047-38.112-6.14 c-12.655-4.086-22.936-8.658-30.835-13.695c-7.898-5.046-14.987-9.614-21.267-13.708c-6.283-4.093-10.278-6.139-11.991-6.139 c-11.61,0-22.222,1.906-31.833,5.711c-9.613,3.806-17.749,8.898-24.412,15.271c-6.661,6.379-12.562,14.086-17.699,23.127 c-5.137,9.042-9.229,18.326-12.275,27.836c-3.045,9.521-5.568,19.842-7.566,30.978c-2,11.136-3.332,21.505-3.999,31.121 c-0.666,9.616-0.998,19.466-0.998,29.554c0,22.836,6.949,40.875,20.842,54.104c13.896,13.224,32.36,19.835,55.39,19.835h249.533 c23.028,0,41.49-6.611,55.388-19.835c13.901-13.229,20.845-31.265,20.845-54.104C420.264,354.502,419.932,344.652,419.258,335.036 z"/></symbol><symbol id="arrow-left" viewBox="0 0 11 28"><title>angle-left</title><path d="M9.797 8.5c0 0.125-0.063 0.266-0.156 0.359l-6.141 6.141 6.141 6.141c0.094 0.094 0.156 0.234 0.156 0.359s-0.063 0.266-0.156 0.359l-0.781 0.781c-0.094 0.094-0.234 0.156-0.359 0.156s-0.266-0.063-0.359-0.156l-7.281-7.281c-0.094-0.094-0.156-0.234-0.156-0.359s0.063-0.266 0.156-0.359l7.281-7.281c0.094-0.094 0.234-0.156 0.359-0.156s0.266 0.063 0.359 0.156l0.781 0.781c0.094 0.094 0.156 0.219 0.156 0.359z"></path></symbol><symbol id="arrow-right" viewBox="0 0 9 28"><title>angle-right</title><path d="M9.297 15c0 0.125-0.063 0.266-0.156 0.359l-7.281 7.281c-0.094 0.094-0.234 0.156-0.359 0.156s-0.266-0.063-0.359-0.156l-0.781-0.781c-0.094-0.094-0.156-0.219-0.156-0.359 0-0.125 0.063-0.266 0.156-0.359l6.141-6.141-6.141-6.141c-0.094-0.094-0.156-0.234-0.156-0.359s0.063-0.266 0.156-0.359l0.781-0.781c0.094-0.094 0.234-0.156 0.359-0.156s0.266 0.063 0.359 0.156l7.281 7.281c0.094 0.094 0.156 0.234 0.156 0.359z"></path><symbol id="graduation" viewBox="0 0 36 28"><title>graduation-cap</title><path d="M27.719 13.062l0.281 4.937c0.125 2.203-4.484 4-10 4s-10.125-1.797-10-4l0.281-4.937 8.969 2.828c0.25 0.078 0.5 0.109 0.75 0.109s0.5-0.031 0.75-0.109zM36 8c0 0.219-0.141 0.406-0.344 0.484l-17.5 5.5c-0.063 0.016-0.109 0.016-0.156 0.016s-0.094 0-0.156-0.016l-10.187-3.219c-0.891 0.703-1.516 2.422-1.641 4.531 0.594 0.344 0.984 0.969 0.984 1.703 0 0.703-0.359 1.313-0.906 1.672l0.906 6.766c0.016 0.141-0.031 0.281-0.125 0.391s-0.234 0.172-0.375 0.172h-3c-0.141 0-0.281-0.063-0.375-0.172s-0.141-0.25-0.125-0.391l0.906-6.766c-0.547-0.359-0.906-0.969-0.906-1.672 0-0.75 0.422-1.391 1.016-1.734 0.094-1.828 0.562-3.797 1.531-5.156l-5.203-1.625c-0.203-0.078-0.344-0.266-0.344-0.484s0.141-0.406 0.344-0.484l17.5-5.5c0.063-0.016 0.109-0.016 0.156-0.016s0.094 0 0.156 0.016l17.5 5.5c0.203 0.078 0.344 0.266 0.344 0.484z"></path></symbol></defs></svg>